<svg width="23" height="23" viewBox="0 0 23 23" fill="none" xmlns="http://www.w3.org/2000/svg">
<path d="M8.27039 16.4258C8.05182 16.9557 7.96719 17.5313 8.02402 18.1017C8.08084 18.6721 8.27737 19.2197 8.59619 19.6961C8.91501 20.1724 9.34629 20.5629 9.85192 20.8329C10.3576 21.103 10.922 21.2442 11.4952 21.2442C12.0684 21.2442 12.6328 21.103 13.1384 20.8329C13.644 20.5629 14.0753 20.1724 14.3942 19.6961C14.713 19.2197 14.9095 18.6721 14.9663 18.1017C15.0231 17.5313 14.9385 16.9557 14.72 16.4258H8.27039Z" stroke="#A2A2A2" stroke-width="2" stroke-linecap="square"/>
<path d="M17.5566 13.0429V7.88706C17.5579 7.09088 17.4022 6.30226 17.0983 5.56633C16.7945 4.83039 16.3486 4.16158 15.786 3.59815C15.2235 3.03472 14.5554 2.58774 13.8199 2.28276C13.0845 1.97779 12.2961 1.82081 11.5 1.82081C10.703 1.81955 9.91356 1.97559 9.177 2.28C8.44044 2.58441 7.77119 3.0312 7.20763 3.59476C6.64408 4.15831 6.19729 4.82755 5.89288 5.56411C5.58847 6.30067 5.43242 7.09007 5.43369 7.88706V13.0429C5.43372 13.9326 5.08226 14.7863 4.45584 15.4181C3.82943 16.0499 2.97878 16.4086 2.08911 16.4162H20.9491C20.5045 16.4187 20.0638 16.3334 19.6523 16.165C19.2408 15.9966 18.8667 15.7485 18.5514 15.435C18.2361 15.1215 17.9859 14.7488 17.8152 14.3383C17.6445 13.9277 17.5566 13.4875 17.5566 13.0429Z" stroke="#A2A2A2" stroke-width="2" stroke-linecap="square"/>
</svg>
